<?xml version="1.0" standalone="no"?>
<!DOCTYPE svg PUBLIC "-//W3C//DTD SVG 20010904//EN"
 "http://www.w3.org/TR/2001/REC-SVG-20010904/DTD/svg10.dtd">
<svg version="1.0" xmlns="http://www.w3.org/2000/svg"
 width="469.000000pt" height="360.000000pt" viewBox="0 0 469.000000 360.000000"
 preserveAspectRatio="xMidYMid meet">

<g transform="translate(0.000000,360.000000) scale(0.100000,-0.100000)"
fill="#000000" stroke="none">
<path d="M2305 3588 c-391 -38 -560 -80 -789 -195 -332 -166 -648 -489 -791
-808 -197 -440 -224 -801 -89 -1215 121 -371 334 -659 678 -919 85 -64 361
-204 447 -226 35 -10 123 -21 194 -26 72 -5 180 -13 240 -18 272 -21 588 29
840 134 265 109 424 212 595 384 154 155 237 265 317 418 103 197 174 453 189
679 7 100 7 100 -20 121 -44 35 -149 47 -419 48 l-248 0 5 25 c14 62 18 329 7
415 -35 257 -94 471 -190 685 -109 242 -191 336 -353 407 -115 51 -185 70
-303 83 -138 14 -223 17 -310 8z m338 -175 c48 -8 89 -18 91 -22 2 -3 -46 -32
-108 -64 -150 -77 -306 -196 -447 -339 -63 -65 -118 -115 -122 -112 -4 4 -7
16 -7 26 0 38 -52 174 -92 243 -23 39 -66 96 -96 127 -64 67 -69 62 103 106
243 62 463 74 678 35z m360 -182 c87 -92 265 -501 219 -501 -6 0 -63 13 -127
30 -184 48 -331 63 -535 57 -116 -4 -205 -12 -262 -25 -49 -11 -88 -16 -88
-12 0 14 248 249 312 293 91 65 377 206 419 207 9 0 37 -22 62 -49z m-1279
-63 c102 -103 148 -186 171 -313 27 -144 21 -181 -61 -331 -39 -71 -84 -163
-101 -204 -29 -69 -134 -399 -147 -462 -7 -33 -22 -36 -31 -7 -13 41 -126 198
-197 275 -81 86 -203 181 -288 224 -30 15 -93 40 -140 55 -47 15 -89 30 -93
32 -12 7 96 206 161 298 67 93 240 271 332 341 86 65 270 174 294 174 10 0 55
-37 100 -82z m1084 -519 c149 -16 451 -93 467 -119 4 -6 14 -78 23 -160 14
-129 14 -167 3 -287 -7 -76 -18 -143 -25 -149 -6 -6 -42 -19 -81 -29 -147 -37
-353 -126 -517 -222 l-47 -28 -103 18 c-199 35 -244 39 -388 34 -146 -5 -228
-18 -353 -57 -38 -12 -71 -20 -73 -17 -6 6 43 275 62 337 24 83 121 325 163
410 72 145 81 155 170 189 109 42 213 70 302 80 107 12 285 13 397 0z m-1888
-410 c201 -77 389 -262 520 -511 88 -167 100 -210 100 -354 0 -306 66 -593
194 -840 41 -79 72 -145 69 -147 -16 -17 -197 68 -319 150 -150 100 -385 316
-477 438 -80 107 -177 293 -215 415 -86 270 -100 548 -40 803 l20 89 37 -7
c20 -4 70 -20 111 -36z m2778 -435 c-4 -3 -69 -34 -145 -68 -306 -137 -672
-374 -970 -628 -130 -112 -328 -314 -449 -460 -22 -26 -42 -47 -46 -47 -9 -1
33 148 62 219 73 185 234 412 390 551 296 265 708 430 1094 438 38 0 67 -2 64
-5z m282 -109 c0 -19 -20 -105 -46 -191 -53 -185 -141 -370 -237 -497 -83
-110 -255 -282 -355 -356 -242 -177 -512 -278 -832 -311 -106 -11 -336 -7
-383 6 -14 4 -4 23 59 104 172 225 319 379 539 567 173 147 462 344 685 465
145 80 522 247 558 248 7 0 12 -13 12 -35z m-1619 -156 c46 -6 86 -13 88 -15
2 -2 -41 -50 -95 -107 -234 -245 -359 -481 -438 -829 -4 -16 -10 -28 -15 -28
-4 0 -27 42 -49 93 -86 196 -136 394 -147 587 -3 58 -8 126 -11 152 -5 47 -4
48 35 67 139 72 424 107 632 80z"/>
</g>
</svg>
